HIERARCHY
ROOT Hips
{
	OFFSET	0.00	0.00	0.00
	CHANNELS 6 Xposition Yposition Zposition Zrotation Xrotation Yrotation
	JOINT LeftUpLeg
	{
		OFFSET	 0.126116	-0.065224	 0.014019
		CHANNELS 3 Zrotation Xrotation Yrotation
		JOINT LeftLeg
		{
			OFFSET	 0.000000	 0.569914	 0.000000
			CHANNELS 3 Zrotation Xrotation Yrotation
			JOINT LeftFoot
			{
				OFFSET	 0.000000	 0.544423	 0.000000
				CHANNELS 3 Zrotation Xrotation Yrotation
				JOINT LeftToeBase
				{
					OFFSET	 0.000000	 0.207117	 0.000000
					CHANNELS 3 Zrotation Xrotation Yrotation
					End Site
					{
						OFFSET	 0.000000	 0.207117	 0.000000
					}
				}
			}
		}
	}
	JOINT RightUpLeg
	{
		OFFSET	-0.124023	-0.065224	 0.008373
		CHANNELS 3 Zrotation Xrotation Yrotation
		JOINT RightLeg
		{
			OFFSET	 0.000000	 0.570047	 0.000000
			CHANNELS 3 Zrotation Xrotation Yrotation
			JOINT RightFoot
			{
				OFFSET	 0.000000	 0.544354	 0.000000
				CHANNELS 3 Zrotation Xrotation Yrotation
				JOINT RightToeBase
				{
					OFFSET	 0.000000	 0.207540	 0.000000
					CHANNELS 3 Zrotation Xrotation Yrotation
					End Site
					{
						OFFSET	 0.000000	 0.207540	 0.000000
					}
				}
			}
		}
	}
	JOINT Spine
	{
		OFFSET	 0.000184	 0.117403	 0.007763
		CHANNELS 3 Zrotation Xrotation Yrotation
		JOINT Spine1
		{
			OFFSET	 0.000000	 0.137269	 0.000000
			CHANNELS 3 Zrotation Xrotation Yrotation
			JOINT Spine2
			{
				OFFSET	 0.000000	 0.156879	 0.000000
				CHANNELS 3 Zrotation Xrotation Yrotation
				JOINT LeftShoulder
				{
					OFFSET	 0.080501	 0.160143	 0.002496
					CHANNELS 3 Zrotation Xrotation Yrotation
					JOINT LeftArm
					{
						OFFSET	 0.000000	 0.164363	 0.000000
						CHANNELS 3 Zrotation Xrotation Yrotation
						JOINT LeftForeArm
						{
							OFFSET	 0.000000	 0.364576	 0.000000
							CHANNELS 3 Zrotation Xrotation Yrotation
							JOINT LeftHand
							{
								OFFSET	 0.000000	 0.360812	 0.000000
								CHANNELS 3 Zrotation Xrotation Yrotation
								JOINT LeftHandIndex1
								{
									OFFSET	 0.000000	 0.086006	 0.000000
									CHANNELS 3 Zrotation Xrotation Yrotation
									JOINT LeftHandIndex2
									{
										OFFSET	 0.000000	 0.047237	 0.000000
										CHANNELS 3 Zrotation Xrotation Yrotation
										JOINT LeftHandIndex3
										{
											OFFSET	-0.004284	 0.038165	 0.000551
											CHANNELS 3 Zrotation Xrotation Yrotation
											End Site
											{
												OFFSET	-0.004284	 0.038165	 0.000551
											}
										}
									}
								}
							}
						}
					}
				}
				JOINT Neck
				{
					OFFSET	 0.000000	 0.176489	 0.000000
					CHANNELS 3 Zrotation Xrotation Yrotation
					JOINT Head
					{
						OFFSET	 0.000000	 0.077941	 0.001747
						CHANNELS 3 Zrotation Xrotation Yrotation
						End Site
						{
							OFFSET	 0.000000	 0.077941	 0.001747
						}
					}
				}
				JOINT RightShoulder
				{
					OFFSET	-0.080363	 0.159706	-0.000306
					CHANNELS 3 Zrotation Xrotation Yrotation
					JOINT RightArm
					{
						OFFSET	 0.000000	 0.164196	 0.000000
						CHANNELS 3 Zrotation Xrotation Yrotation
						JOINT RightForeArm
						{
							OFFSET	 0.000000	 0.365611	 0.000000
							CHANNELS 3 Zrotation Xrotation Yrotation
							JOINT RightHand
							{
								OFFSET	 0.000000	 0.360648	 0.000000
								CHANNELS 3 Zrotation Xrotation Yrotation
								JOINT RightHandIndex1
								{
									OFFSET	 0.000000	 0.069977	 0.000000
									CHANNELS 3 Zrotation Xrotation Yrotation
									JOINT RightHandIndex2
									{
										OFFSET	 0.000000	 0.052305	 0.000000
										CHANNELS 3 Zrotation Xrotation Yrotation
										JOINT RightHandIndex3
										{
											OFFSET	 0.009002	 0.042196	 0.000782
											CHANNELS 3 Zrotation Xrotation Yrotation
											End Site
											{
												OFFSET	 0.009002	 0.042196	 0.000782
											}
										}
									}
								}
							}
						}
					}
				}
			}
		}
	}
}
MOTION
Frames:    4
Frame Time: 0.03333334
 0.000321	 1.271134	 0.063365	 0.387912	-0.006533	 179.992500	 177.254200	 1.579291	 19.169780	 2.846766	-13.193890	 0.071845	-1.960369	 72.184970	 3.988976	 1.292262	 28.425850	-2.713146	-176.889600	 1.318113	-19.122690	-2.502424	-11.989780	 0.003413	 2.141929	 71.365270	-4.219112	-1.288183	 28.361890	 2.710176	-0.145687	 2.963157	-10.140220	 2.271560	 3.001790	-5.209378	-2.175636	-3.751084	 15.268190	-101.478000	 1.740670	 90.353390	-1.427445	 61.563720	 4.211898	 8.072228	 16.374760	 0.291789	-13.880700	-30.488830	-41.016990	-6.580301	 5.266122	 0.000000	 0.000000	 0.000000	 0.000000	 0.000000	 0.000000	 0.000000	 0.089846	-3.783161	 0.005928	-0.025210	 0.759698	 3.801137	 101.796200	-0.213317	-89.955440	-5.558661	 66.684670	-3.210098	-6.546282	 9.921164	 1.850337	-27.665800	-14.993760	-33.905980	 15.208500	 5.323790	 0.000000	 0.000000	 0.000000	 0.000000	 0.000000	 0.000000	 0.000000
 0.000209	 1.271798	 0.063321	 0.430961	-0.008425	 179.992100	 177.281200	 1.602156	 19.170590	 2.857887	-13.243600	 0.074393	-1.936827	 72.100840	 3.963982	 1.292262	 28.425850	-2.713146	-176.895000	 1.246016	-19.116720	-2.464874	-11.815070	 0.011160	 2.109017	 71.167530	-4.204004	-1.288183	 28.361890	 2.710176	-0.061222	 2.535594	-9.987674	 2.170022	 4.468631	-5.225417	-1.971203	-5.634404	 15.086030	-101.478000	 1.740667	 90.353380	-3.466050	 60.976630	 6.104167	 8.523154	 17.230440	 0.161486	-12.690610	-32.422730	-40.893400	-6.580301	 5.266122	 0.000000	 0.000000	 0.000000	 0.000000	 0.000000	 0.000000	 0.000000	 0.089846	-3.783161	 0.005928	-0.017957	 0.549928	 3.740425	 101.796200	-0.213311	-89.955450	-2.110526	 65.505060	-6.421018	-8.292033	 12.476390	 2.145836	-29.607010	-16.416200	-34.423900	 15.208500	 5.323790	 0.000000	 0.000000	 0.000000	 0.000000	 0.000000	 0.000000	 0.000000
 0.000119	 1.272576	 0.063271	 0.466203	-0.010995	 179.991400	 177.312900	 1.606243	 19.170470	 2.858742	-13.247400	 0.074581	-1.904925	 71.979690	 3.935192	 1.292262	 28.425850	-2.713146	-176.899000	 1.188814	-19.111500	-2.434562	-11.673890	 0.017328	 2.077570	 70.973310	-4.187562	-1.288183	 28.361890	 2.710176	 0.033930	 2.055426	-9.539109	 2.000680	 6.124743	-5.109921	-1.691149	-7.788533	 14.487130	-101.478000	 1.740665	 90.353370	-5.723098	 60.342320	 8.193201	 8.985391	 18.098510	 0.021200	-11.029120	-35.145650	-39.784910	-6.580301	 5.266122	 0.000000	 0.000000	 0.000000	 0.000000	 0.000000	 0.000000	 0.000000	 0.089846	-3.783161	 0.005928	-0.010436	 0.334972	 3.568817	 101.796200	-0.213315	-89.955460	 1.645832	 63.640610	-9.910309	-10.849020	 16.107260	 2.699557	-31.990580	-19.079010	-34.798870	 15.208500	 5.323790	 0.000000	 0.000000	 0.000000	 0.000000	 0.000000	 0.000000	 0.000000
 0.000085	 1.273380	 0.063223	 0.479812	-0.014240	 179.990900	 177.342700	 1.581877	 19.168390	 2.844064	-13.181830	 0.071226	-1.869944	 71.824710	 3.909648	 1.292262	 28.425850	-2.713146	-176.920000	 1.137051	-19.107640	-2.406669	-11.543820	 0.022946	 2.042558	 70.785740	-4.167532	-1.288183	 28.361890	 2.710176	 0.118083	 1.585949	-8.772360	 1.774109	 7.761002	-4.825106	-1.372150	-9.952885	 13.421730	-101.478000	 1.740663	 90.353390	-7.930830	 59.770820	 10.230100	 9.380088	 18.831930	-0.103838	-8.762589	-38.376790	-37.425160	-6.580301	 5.266122	 0.000000	 0.000000	 0.000000	 0.000000	 0.000000	 0.000000	 0.000000	 0.089846	-3.783161	 0.005928	-0.004152	 0.145151	 3.277956	 101.796200	-0.213304	-89.955440	 4.919065	 61.355830	-12.931560	-13.894530	 20.224640	 3.543187	-34.631870	-22.857520	-34.940060	 15.208500	 5.323790	 0.000000	 0.000000	 0.000000	 0.000000	 0.000000	 0.000000	 0.000000
